<svg xmlns="http://www.w3.org/2000/svg" xmlns:oryx="http://oryx-editor.org" id="_0634D2FC-D326-4420-9438-80453370E629" width="728" height="261" xmlns:xlink="http://www.w3.org/1999/xlink" xmlns:svg="http://www.w3.org/2000/svg"><defs><marker id="_567BA834-DAAD-46D4-A8BB-3560F64AB561start" refX="1" refY="5" markerUnits="userSpaceOnUse" markerWidth="17" markerHeight="11" orient="auto" fill="#000000" stroke="#000000"> 	  		<path id="_567BA834-DAAD-46D4-A8BB-3560F64AB561conditional" d="M 0 5 L 8 0 L 16 5 L 8 10 L 0 5" fill="white" stroke="#000000" stroke-width="1" display="none"/> 			<path id="_567BA834-DAAD-46D4-A8BB-3560F64AB561default" d="M 5 0 L 11 10" fill="white" stroke="#000000" stroke-width="1" display="none"/> 	  	</marker><marker id="_567BA834-DAAD-46D4-A8BB-3560F64AB561end" refX="15" refY="6" markerUnits="userSpaceOnUse" markerWidth="15" markerHeight="12" orient="auto" fill="#000000" stroke="#000000"> 	  		<path id="_567BA834-DAAD-46D4-A8BB-3560F64AB561frame2" d="M 0 1 L 15 6 L 0 11z" fill="#000000" stroke="#000000" stroke-linejoin="round" stroke-width="2"/> 	  	</marker><marker id="_DAF40E76-72E5-42F9-8C81-A48EEDC47F55start" refX="1" refY="5" markerUnits="userSpaceOnUse" markerWidth="17" markerHeight="11" orient="auto" fill="#000000" stroke="#000000"> 	  		<path id="_DAF40E76-72E5-42F9-8C81-A48EEDC47F55conditional" d="M 0 5 L 8 0 L 16 5 L 8 10 L 0 5" fill="white" stroke="#000000" stroke-width="1" display="none"/> 			<path id="_DAF40E76-72E5-42F9-8C81-A48EEDC47F55default" d="M 5 0 L 11 10" fill="white" stroke="#000000" stroke-width="1" display="none"/> 	  	</marker><marker id="_DAF40E76-72E5-42F9-8C81-A48EEDC47F55end" refX="15" refY="6" markerUnits="userSpaceOnUse" markerWidth="15" markerHeight="12" orient="auto" fill="#000000" stroke="#000000"> 	  		<path id="_DAF40E76-72E5-42F9-8C81-A48EEDC47F55frame2" d="M 0 1 L 15 6 L 0 11z" fill="#000000" stroke="#000000" stroke-linejoin="round" stroke-width="2"/> 	  	</marker><marker id="_BA233D35-96AE-4D44-9368-45F588F4CCAEstart" refX="1" refY="5" markerUnits="userSpaceOnUse" markerWidth="17" markerHeight="11" orient="auto" fill="#000000" stroke="#000000"> 	  		<path id="_BA233D35-96AE-4D44-9368-45F588F4CCAEconditional" d="M 0 5 L 8 0 L 16 5 L 8 10 L 0 5" fill="white" stroke="#000000" stroke-width="1" display="none"/> 			<path id="_BA233D35-96AE-4D44-9368-45F588F4CCAEdefault" d="M 5 0 L 11 10" fill="white" stroke="#000000" stroke-width="1" display="none"/> 	  	</marker><marker id="_BA233D35-96AE-4D44-9368-45F588F4CCAEend" refX="15" refY="6" markerUnits="userSpaceOnUse" markerWidth="15" markerHeight="12" orient="auto" fill="#000000" stroke="#000000"> 	  		<path id="_BA233D35-96AE-4D44-9368-45F588F4CCAEframe2" d="M 0 1 L 15 6 L 0 11z" fill="#000000" stroke="#000000" stroke-linejoin="round" stroke-width="2"/> 	  	</marker></defs><g stroke="none" font-family="Verdana, sans-serif" font-size-adjust="none" font-style="normal" font-variant="normal" font-weight="normal" line-heigth="normal" font-size="12"><g class="stencils" transform="translate(15, 16)"><g class="me"/><g class="children"><g id="_93ACFC01-92C6-4F69-95F4-5B12762A546A" bpmn2nodeid="processStartEvent"><g class="stencils" transform="translate(120, 165)"><g class="me"><g pointer-events="fill" id="_93ACFC01-92C6-4F69-95F4-5B12762A546A">        <defs id="_93ACFC01-92C6-4F69-95F4-5B12762A546A__93ACFC01-92C6-4F69-95F4-5B12762A546A_5"> 		<radialGradient id="_93ACFC01-92C6-4F69-95F4-5B12762A546Abackground" cx="10%" cy="10%" r="100%" fx="10%" fy="10%"> 			<stop offset="0%" stop-color="#ffffff" stop-opacity="1" id="_93ACFC01-92C6-4F69-95F4-5B12762A546A__93ACFC01-92C6-4F69-95F4-5B12762A546A_6"/> 			<stop id="_93ACFC01-92C6-4F69-95F4-5B12762A546Afill_el" offset="100%" stop-color="#9acd32" stop-opacity="1"/> 		</radialGradient> 	</defs> 	     <circle id="_93ACFC01-92C6-4F69-95F4-5B12762A546Abg_frame" cx="15" cy="15" r="15" stroke="#000000" fill="url(#_93ACFC01-92C6-4F69-95F4-5B12762A546Abackground) white" stroke-width="1" style="stroke-dasharray: 5.5, 3"/>      <circle id="_93ACFC01-92C6-4F69-95F4-5B12762A546Aframe" cx="15" cy="15" r="15" stroke="#000000" fill="none" stroke-width="1" display="inherit"/>  	<text font-size="11" id="_93ACFC01-92C6-4F69-95F4-5B12762A546Atext_name" x="15" y="32" oryx:align="top center" stroke="black" stroke-width="0pt" letter-spacing="-0.01px" fill="#000000" text-anchor="middle" transform="rotate(0 15 32)" visibility="inherit" oryx:fontSize="11"/>   </g></g><g class="children" style="overflow:hidden"/><g class="edge"/></g><g class="controls"><g class="dockers"/><g class="magnets" transform="translate(120, 165)"><g pointer-events="all" display="none" transform="translate(7, 7)"><circle cx="8" cy="8" r="4" stroke="none" fill="red" fill-opacity="0.3"/></g></g></g></g><g id="_70B7A066-4357-411E-8991-714F18EEAB15" bpmn2nodeid="_94B479B3-077F-418C-AB36-02503A518CC6"><g class="stencils" transform="translate(225, 140)"><g class="me"><g pointer-events="fill" oryx:minimumSize="50 40" id="_70B7A066-4357-411E-8991-714F18EEAB15">   	<defs id="_70B7A066-4357-411E-8991-714F18EEAB15__70B7A066-4357-411E-8991-714F18EEAB15_17"> 		<radialGradient id="_70B7A066-4357-411E-8991-714F18EEAB15background" cx="10%" cy="10%" r="100%" fx="10%" fy="10%"> 			<stop offset="0%" stop-color="#ffffff" stop-opacity="1" id="_70B7A066-4357-411E-8991-714F18EEAB15__70B7A066-4357-411E-8991-714F18EEAB15_18"/> 			<stop id="_70B7A066-4357-411E-8991-714F18EEAB15fill_el" offset="100%" stop-color="#fafad2" stop-opacity="1"/> 		</radialGradient> 		<radialGradient id="_70B7A066-4357-411E-8991-714F18EEAB15borderbackground" cx="10%" cy="10%" r="100%" fx="10%" fy="10%"> 			<stop offset="0%" stop-color="#ffffff" stop-opacity="1" id="_70B7A066-4357-411E-8991-714F18EEAB15__70B7A066-4357-411E-8991-714F18EEAB15_19"/> 			<stop id="_70B7A066-4357-411E-8991-714F18EEAB15fill_border" offset="100%" stop-color="#000000" stop-opacity="1" stroke="#000000"/> 		</radialGradient> 	</defs> 	 	<rect id="_70B7A066-4357-411E-8991-714F18EEAB15text_frame" oryx:anchors="bottom top right left" x="1" y="1" width="94" height="79" rx="10" ry="10" stroke="none" stroke-width="0" fill="none"/> 	<rect id="_70B7A066-4357-411E-8991-714F18EEAB15bg_frame" oryx:resize="vertical horizontal" x="0" y="0" width="100" height="80" rx="10" ry="10" stroke="#000000" stroke-width="1" fill="url(#_70B7A066-4357-411E-8991-714F18EEAB15background) #ffffcc"/> 		<text font-size="12" id="_70B7A066-4357-411E-8991-714F18EEAB15text_name" x="50" y="40" oryx:align="middle center" oryx:fittoelem="text_frame" stroke="black" text-anchor="middle" stroke-width="0pt" letter-spacing="-0.01px" fill="#000000" transform="rotate(0 50 40)" visibility="inherit" oryx:fontSize="12"><tspan x="50" y="40" dy="-1">Material </tspan><tspan x="50" y="40" dy="11" id="ext-gen1442">Request</tspan></text>     <g id="_70B7A066-4357-411E-8991-714F18EEAB15manualTask" transform="scale(0.7,0.7) translate(8,8)" display="none">     	<path oryx:anchors="top left" id="_70B7A066-4357-411E-8991-714F18EEAB15frame" style="opacity:1;fill:none;fill-opacity:1;stroke-width:1" d="M0.5,3.751l4.083-3.25c0,0,11.166,0.083,12.083,0.083s-2.417,2.917-1.5,2.917     s11.667,0,12.584,0c1.166,1.708-0.168,3.167-0.834,3.667s0.875,1.917-1,4.417c-0.75,0.25,0.75,1.875-1.333,3.333     c-1.167,0.583,0.583,1.542-1.25,2.833c-1.167,0-20.833,0.083-20.833,0.083l-2-1.333V3.751z" stroke="#000000"/> 		<path id="_70B7A066-4357-411E-8991-714F18EEAB15frame2" oryx:anchors="top left" style="opacity:1;fill:none;stroke-width:2" d="M 13.5 7 L 27 7" stroke="#000000"/> 		<path id="_70B7A066-4357-411E-8991-714F18EEAB15frame3" oryx:anchors="top left" style="opacity:1;fill:none;stroke-width:2" d="M 13.5 11 L 26 11" stroke="#000000"/> 		<path id="_70B7A066-4357-411E-8991-714F18EEAB15frame4" oryx:anchors="top left" style="opacity:1;fill:none;stroke-width:1.5" d="M 14 14.5 L 25 14.5" stroke="#000000"/> 		<path id="_70B7A066-4357-411E-8991-714F18EEAB15frame5" oryx:anchors="top left" style="opacity:1;fill:none;stroke-width:1.5" d="M 8.2 3.1 L 15 3.1" stroke="#000000"/> 	</g> 	 	<g id="_70B7A066-4357-411E-8991-714F18EEAB15businessRuleTask" transform="scale(0.7,0.7) translate(8,8)" display="none"> 		<rect id="_70B7A066-4357-411E-8991-714F18EEAB15frame6" oryx:anchors="top left" x="0" y="0" width="22" height="4" style="opacity:1;fill:#B3B1B3;fill-opacity:1;" stroke="#000000"/> 		<rect id="_70B7A066-4357-411E-8991-714F18EEAB15frame7" oryx:anchors="top left" x="0" y="4" style="opacity:1;fill:none;" width="22" height="12" stroke="#000000"/> 		<path id="_70B7A066-4357-411E-8991-714F18EEAB15frame8" oryx:anchors="top left" style="opacity:1;fill:none;" d="M 0 10 L 22 10" stroke="#000000"/> 		<path id="_70B7A066-4357-411E-8991-714F18EEAB15frame9" oryx:anchors="top left" style="opacity:1; fill:none;" d="M 7 4 L 7 16" stroke="#000000"/> 	</g> 	 	<g id="_70B7A066-4357-411E-8991-714F18EEAB15scriptTask" transform="scale(0.7,0.7) translate(8,8)" display="none"> 		<path oryx:anchors="top left" id="_70B7A066-4357-411E-8991-714F18EEAB15frame10" style="opacity:1;fill:none;" stroke="#000000" d="M6.402,0.5h14.5c0,0-5.833,2.833-5.833,5.583s4.417,6,4.417,9.167    s-4.167,5.083-4.167,5.083H0.235c0,0,5-2.667,5-5s-4.583-6.75-4.583-9.25S6.402,0.5,6.402,0.5z"/> 		<path oryx:anchors="top left" id="_70B7A066-4357-411E-8991-714F18EEAB15frame11" style="opacity:1;fill:none;stroke-width:1.5" d="M 3.5 4.5 L 13.5 4.5" stroke="#000000"/> 		<path oryx:anchors="top left" id="_70B7A066-4357-411E-8991-714F18EEAB15frame12" style="opacity:1;fill:none;stroke-width:1.5" d="M 3.8 8.5 L 13.8 8.5" stroke="#000000"/> 		<path oryx:anchors="top left" id="_70B7A066-4357-411E-8991-714F18EEAB15frame13" style="opacity:1;fill:none;stroke-width:1.5" d="M 6.3 12.5 L 16.3 12.5" stroke="#000000"/> 		<path oryx:anchors="top left" id="_70B7A066-4357-411E-8991-714F18EEAB15frame14" style="opacity:1;fill:none;stroke-width:1.5" d="M 6.5 16.5 L 16.5 16.5" stroke="#000000"/> 	</g> 	 	<g id="_70B7A066-4357-411E-8991-714F18EEAB15userTask" transform="scale(0.7,0.7) translate(8,8)" display="inherit"> 		<path id="_70B7A066-4357-411E-8991-714F18EEAB15frame15" oryx:anchors="top left" style="opacity:1;fill:#F4F6F7" stroke="#000000" d="M0.585,24.167h24.083v-7.833c0,0-2.333-3.917-7.083-5.167h-9.25    c-4.417,1.333-7.833,5.75-7.833,5.75L0.585,24.167z"/> 		<path id="_70B7A066-4357-411E-8991-714F18EEAB15frame16" oryx:anchors="top left" style="opacity:1;fill:none" d="M 6 20 L 6 24" stroke="#000000"/> 		<path id="_70B7A066-4357-411E-8991-714F18EEAB15frame17" oryx:anchors="top left" style="opacity:1;fill:none" d="M 20 20 L 20 24" stroke="#000000"/> 		<circle id="_70B7A066-4357-411E-8991-714F18EEAB15frame18" oryx:anchors="top left" fill="black" cx="13.002" cy="5.916" r="5.417" stroke="#000000"/> 		<path id="_70B7A066-4357-411E-8991-714F18EEAB15frame19" oryx:anchors="top left" style="opacity:1;fill:#F0EFF0;" stroke="#000000" d="M8.043,7.083c0,0,2.814-2.426,5.376-1.807s4.624-0.693,4.624-0.693    c0.25,1.688,0.042,3.75-1.458,5.584c0,0,1.083,0.75,1.083,1.5s0.125,1.875-1,3s-5.5,1.25-6.75,0S8.668,12.834,8.668,12    s0.583-1.25,1.25-1.917C8.835,9.5,7.419,7.708,8.043,7.083z"/> 	</g> 	 	<g id="_70B7A066-4357-411E-8991-714F18EEAB15serviceTask" transform="scale(0.7,0.7) translate(8,8)" display="none"> 		<polygon oryx:anchors="top left" id="_70B7A066-4357-411E-8991-714F18EEAB15frame20" style="opacity:1;fill:#ffffff" stroke="#000000" points="15.392,5.064 17.954,2.502 20.347,4.895 17.786,7.455     18.729,9.732 22.353,9.732 22.353,13.115 18.731,13.115 17.788,15.392 20.351,17.955 17.958,20.347 15.397,17.786 13.12,18.729     13.12,22.353 9.737,22.353 9.737,18.731 7.46,17.788 4.897,20.35 2.506,17.958 5.066,15.397 4.124,13.12 0.5,13.12 0.5,9.737     4.121,9.737 5.065,7.461 2.503,4.898 4.895,2.506 7.455,5.066 9.732,4.125 9.732,0.5 13.116,0.5 13.116,4.121 "/> 		<circle oryx:anchors="top left" id="_70B7A066-4357-411E-8991-714F18EEAB15frame21" style="opacity:1;fill:none" stroke="#000000" cx="11.427" cy="11.426" r="3.714"/> 		<polygon oryx:anchors="top left" id="_70B7A066-4357-411E-8991-714F18EEAB15frame22" style="opacity:1;fill:#ffffff" stroke="#000000" points="21.392,11.064 23.954,8.502 26.347,10.895 23.786,13.455     24.729,15.732 28.353,15.732 28.353,19.115 24.731,19.115 23.788,21.392 26.351,23.955 23.958,26.347 21.397,23.786 19.12,24.729     19.12,28.353 15.737,28.353 15.737,24.731 13.46,23.788 10.897,26.35 8.506,23.958 11.066,21.397 10.124,19.12 6.5,19.12     6.5,15.737 10.121,15.737 11.065,13.461 8.503,10.898 10.895,8.506 13.455,11.066 15.732,10.125 15.732,6.5 19.116,6.5     19.116,10.121 "/> 		<circle oryx:anchors="top left" id="_70B7A066-4357-411E-8991-714F18EEAB15frame23" style="opacity:1;fill:none;" stroke="#000000" cx="17.427" cy="17.426" r="3.714"/> 	</g> 	 	<g id="_70B7A066-4357-411E-8991-714F18EEAB15sendTask" display="none"> 		<path id="_70B7A066-4357-411E-8991-714F18EEAB15stframe24" oryx:anchors="left top" stroke="#FFFFFF" fill="black" stroke-width="1" d="M8,11 L8,21 L24,21 L24,11 L16,17z"/> 		<path id="_70B7A066-4357-411E-8991-714F18EEAB15stframe25" oryx:anchors="left top" stroke="#FFFFFF" fill="black" stroke-width="1" d="M7,10 L16,17 L25 10z"/> 	</g> 	 	<g id="_70B7A066-4357-411E-8991-714F18EEAB15receiveTask" display="none"> 		<path id="_70B7A066-4357-411E-8991-714F18EEAB15frame26" oryx:anchors="left top" stroke="#000000" fill="none" stroke-width="1" d="M8,11 L8,21 L24,21 L24,11z M8,11 L16,17 L24,11"/> 	</g> 	 	<g id="_70B7A066-4357-411E-8991-714F18EEAB15none" display="none"/>  	<g id="_70B7A066-4357-411E-8991-714F18EEAB15sequential" display="none">         <path oryx:anchors="bottom" fill="none" stroke="#000000" stroke-width="2" d="M46,76h10M46,72h10 M46,68h10" id="_70B7A066-4357-411E-8991-714F18EEAB15__70B7A066-4357-411E-8991-714F18EEAB15_20"/>     </g>   </g></g><g class="children" style="overflow:hidden"/><g class="edge"/></g><g class="controls"><g class="dockers"/><g class="magnets" transform="translate(225, 140)"><g pointer-events="all" display="none" transform="translate(-7, 12)"><circle cx="8" cy="8" r="4" stroke="none" fill="red" fill-opacity="0.3"/></g><g pointer-events="all" display="none" transform="translate(-7, 32)"><circle cx="8" cy="8" r="4" stroke="none" fill="red" fill-opacity="0.3"/></g><g pointer-events="all" display="none" transform="translate(-7, 52)"><circle cx="8" cy="8" r="4" stroke="none" fill="red" fill-opacity="0.3"/></g><g pointer-events="all" display="none" transform="translate(17, 71)"><circle cx="8" cy="8" r="4" stroke="none" fill="red" fill-opacity="0.3"/></g><g pointer-events="all" display="none" transform="translate(42, 71)"><circle cx="8" cy="8" r="4" stroke="none" fill="red" fill-opacity="0.3"/></g><g pointer-events="all" display="none" transform="translate(67, 71)"><circle cx="8" cy="8" r="4" stroke="none" fill="red" fill-opacity="0.3"/></g><g pointer-events="all" display="none" transform="translate(91, 12)"><circle cx="8" cy="8" r="4" stroke="none" fill="red" fill-opacity="0.3"/></g><g pointer-events="all" display="none" transform="translate(91, 32)"><circle cx="8" cy="8" r="4" stroke="none" fill="red" fill-opacity="0.3"/></g><g pointer-events="all" display="none" transform="translate(91, 52)"><circle cx="8" cy="8" r="4" stroke="none" fill="red" fill-opacity="0.3"/></g><g pointer-events="all" display="none" transform="translate(17, -7)"><circle cx="8" cy="8" r="4" stroke="none" fill="red" fill-opacity="0.3"/></g><g pointer-events="all" display="none" transform="translate(42, -7)"><circle cx="8" cy="8" r="4" stroke="none" fill="red" fill-opacity="0.3"/></g><g pointer-events="all" display="none" transform="translate(67, -7)"><circle cx="8" cy="8" r="4" stroke="none" fill="red" fill-opacity="0.3"/></g><g pointer-events="all" display="none" transform="translate(42, 32)"><circle cx="8" cy="8" r="4" stroke="none" fill="red" fill-opacity="0.3"/></g></g></g></g><g id="_FB5863DE-D91D-446F-B6A6-BD5C1B2FD702" bpmn2nodeid="_BA02CD5E-3E42-4687-9D57-1981CC6CA519"><g class="stencils" transform="translate(420, 140)"><g class="me"><g pointer-events="fill" oryx:minimumSize="50 40" id="_FB5863DE-D91D-446F-B6A6-BD5C1B2FD702">   	<defs id="_FB5863DE-D91D-446F-B6A6-BD5C1B2FD702__FB5863DE-D91D-446F-B6A6-BD5C1B2FD702_17"> 		<radialGradient id="_FB5863DE-D91D-446F-B6A6-BD5C1B2FD702background" cx="10%" cy="10%" r="100%" fx="10%" fy="10%"> 			<stop offset="0%" stop-color="#ffffff" stop-opacity="1" id="_FB5863DE-D91D-446F-B6A6-BD5C1B2FD702__FB5863DE-D91D-446F-B6A6-BD5C1B2FD702_18"/> 			<stop id="_FB5863DE-D91D-446F-B6A6-BD5C1B2FD702fill_el" offset="100%" stop-color="#fafad2" stop-opacity="1"/> 		</radialGradient> 		<radialGradient id="_FB5863DE-D91D-446F-B6A6-BD5C1B2FD702borderbackground" cx="10%" cy="10%" r="100%" fx="10%" fy="10%"> 			<stop offset="0%" stop-color="#ffffff" stop-opacity="1" id="_FB5863DE-D91D-446F-B6A6-BD5C1B2FD702__FB5863DE-D91D-446F-B6A6-BD5C1B2FD702_19"/> 			<stop id="_FB5863DE-D91D-446F-B6A6-BD5C1B2FD702fill_border" offset="100%" stop-color="#000000" stop-opacity="1" stroke="#000000"/> 		</radialGradient> 	</defs> 	 	<rect id="_FB5863DE-D91D-446F-B6A6-BD5C1B2FD702text_frame" oryx:anchors="bottom top right left" x="1" y="1" width="94" height="79" rx="10" ry="10" stroke="none" stroke-width="0" fill="none"/> 	<rect id="_FB5863DE-D91D-446F-B6A6-BD5C1B2FD702bg_frame" oryx:resize="vertical horizontal" x="0" y="0" width="100" height="80" rx="10" ry="10" stroke="#000000" stroke-width="1" fill="url(#_FB5863DE-D91D-446F-B6A6-BD5C1B2FD702background) #ffffcc"/> 		<text font-size="12" id="_FB5863DE-D91D-446F-B6A6-BD5C1B2FD702text_name" x="50" y="40" oryx:align="middle center" oryx:fittoelem="text_frame" stroke="black" text-anchor="middle" stroke-width="0pt" letter-spacing="-0.01px" fill="#000000" transform="rotate(0 50 40)" visibility="inherit" oryx:fontSize="12"><tspan x="50" y="40" dy="-7">Print </tspan><tspan x="50" y="40" dy="5" id="ext-gen1311">Assignment </tspan><tspan x="50" y="40" dy="17" id="ext-gen1292">Status</tspan></text>     <g id="_FB5863DE-D91D-446F-B6A6-BD5C1B2FD702manualTask" transform="scale(0.7,0.7) translate(8,8)" display="none">     	<path oryx:anchors="top left" id="_FB5863DE-D91D-446F-B6A6-BD5C1B2FD702frame" style="opacity:1;fill:none;fill-opacity:1;stroke-width:1" d="M0.5,3.751l4.083-3.25c0,0,11.166,0.083,12.083,0.083s-2.417,2.917-1.5,2.917     s11.667,0,12.584,0c1.166,1.708-0.168,3.167-0.834,3.667s0.875,1.917-1,4.417c-0.75,0.25,0.75,1.875-1.333,3.333     c-1.167,0.583,0.583,1.542-1.25,2.833c-1.167,0-20.833,0.083-20.833,0.083l-2-1.333V3.751z" stroke="#000000"/> 		<path id="_FB5863DE-D91D-446F-B6A6-BD5C1B2FD702frame2" oryx:anchors="top left" style="opacity:1;fill:none;stroke-width:2" d="M 13.5 7 L 27 7" stroke="#000000"/> 		<path id="_FB5863DE-D91D-446F-B6A6-BD5C1B2FD702frame3" oryx:anchors="top left" style="opacity:1;fill:none;stroke-width:2" d="M 13.5 11 L 26 11" stroke="#000000"/> 		<path id="_FB5863DE-D91D-446F-B6A6-BD5C1B2FD702frame4" oryx:anchors="top left" style="opacity:1;fill:none;stroke-width:1.5" d="M 14 14.5 L 25 14.5" stroke="#000000"/> 		<path id="_FB5863DE-D91D-446F-B6A6-BD5C1B2FD702frame5" oryx:anchors="top left" style="opacity:1;fill:none;stroke-width:1.5" d="M 8.2 3.1 L 15 3.1" stroke="#000000"/> 	</g> 	 	<g id="_FB5863DE-D91D-446F-B6A6-BD5C1B2FD702businessRuleTask" transform="scale(0.7,0.7) translate(8,8)" display="none"> 		<rect id="_FB5863DE-D91D-446F-B6A6-BD5C1B2FD702frame6" oryx:anchors="top left" x="0" y="0" width="22" height="4" style="opacity:1;fill:#B3B1B3;fill-opacity:1;" stroke="#000000"/> 		<rect id="_FB5863DE-D91D-446F-B6A6-BD5C1B2FD702frame7" oryx:anchors="top left" x="0" y="4" style="opacity:1;fill:none;" width="22" height="12" stroke="#000000"/> 		<path id="_FB5863DE-D91D-446F-B6A6-BD5C1B2FD702frame8" oryx:anchors="top left" style="opacity:1;fill:none;" d="M 0 10 L 22 10" stroke="#000000"/> 		<path id="_FB5863DE-D91D-446F-B6A6-BD5C1B2FD702frame9" oryx:anchors="top left" style="opacity:1; fill:none;" d="M 7 4 L 7 16" stroke="#000000"/> 	</g> 	 	<g id="_FB5863DE-D91D-446F-B6A6-BD5C1B2FD702scriptTask" transform="scale(0.7,0.7) translate(8,8)" display="inherit"> 		<path oryx:anchors="top left" id="_FB5863DE-D91D-446F-B6A6-BD5C1B2FD702frame10" style="opacity:1;fill:none;" stroke="#000000" d="M6.402,0.5h14.5c0,0-5.833,2.833-5.833,5.583s4.417,6,4.417,9.167    s-4.167,5.083-4.167,5.083H0.235c0,0,5-2.667,5-5s-4.583-6.75-4.583-9.25S6.402,0.5,6.402,0.5z"/> 		<path oryx:anchors="top left" id="_FB5863DE-D91D-446F-B6A6-BD5C1B2FD702frame11" style="opacity:1;fill:none;stroke-width:1.5" d="M 3.5 4.5 L 13.5 4.5" stroke="#000000"/> 		<path oryx:anchors="top left" id="_FB5863DE-D91D-446F-B6A6-BD5C1B2FD702frame12" style="opacity:1;fill:none;stroke-width:1.5" d="M 3.8 8.5 L 13.8 8.5" stroke="#000000"/> 		<path oryx:anchors="top left" id="_FB5863DE-D91D-446F-B6A6-BD5C1B2FD702frame13" style="opacity:1;fill:none;stroke-width:1.5" d="M 6.3 12.5 L 16.3 12.5" stroke="#000000"/> 		<path oryx:anchors="top left" id="_FB5863DE-D91D-446F-B6A6-BD5C1B2FD702frame14" style="opacity:1;fill:none;stroke-width:1.5" d="M 6.5 16.5 L 16.5 16.5" stroke="#000000"/> 	</g> 	 	<g id="_FB5863DE-D91D-446F-B6A6-BD5C1B2FD702userTask" transform="scale(0.7,0.7) translate(8,8)" display="none"> 		<path id="_FB5863DE-D91D-446F-B6A6-BD5C1B2FD702frame15" oryx:anchors="top left" style="opacity:1;fill:#F4F6F7" stroke="#000000" d="M0.585,24.167h24.083v-7.833c0,0-2.333-3.917-7.083-5.167h-9.25    c-4.417,1.333-7.833,5.75-7.833,5.75L0.585,24.167z"/> 		<path id="_FB5863DE-D91D-446F-B6A6-BD5C1B2FD702frame16" oryx:anchors="top left" style="opacity:1;fill:none" d="M 6 20 L 6 24" stroke="#000000"/> 		<path id="_FB5863DE-D91D-446F-B6A6-BD5C1B2FD702frame17" oryx:anchors="top left" style="opacity:1;fill:none" d="M 20 20 L 20 24" stroke="#000000"/> 		<circle id="_FB5863DE-D91D-446F-B6A6-BD5C1B2FD702frame18" oryx:anchors="top left" fill="black" cx="13.002" cy="5.916" r="5.417" stroke="#000000"/> 		<path id="_FB5863DE-D91D-446F-B6A6-BD5C1B2FD702frame19" oryx:anchors="top left" style="opacity:1;fill:#F0EFF0;" stroke="#000000" d="M8.043,7.083c0,0,2.814-2.426,5.376-1.807s4.624-0.693,4.624-0.693    c0.25,1.688,0.042,3.75-1.458,5.584c0,0,1.083,0.75,1.083,1.5s0.125,1.875-1,3s-5.5,1.25-6.75,0S8.668,12.834,8.668,12    s0.583-1.25,1.25-1.917C8.835,9.5,7.419,7.708,8.043,7.083z"/> 	</g> 	 	<g id="_FB5863DE-D91D-446F-B6A6-BD5C1B2FD702serviceTask" transform="scale(0.7,0.7) translate(8,8)" display="none"> 		<polygon oryx:anchors="top left" id="_FB5863DE-D91D-446F-B6A6-BD5C1B2FD702frame20" style="opacity:1;fill:#ffffff" stroke="#000000" points="15.392,5.064 17.954,2.502 20.347,4.895 17.786,7.455     18.729,9.732 22.353,9.732 22.353,13.115 18.731,13.115 17.788,15.392 20.351,17.955 17.958,20.347 15.397,17.786 13.12,18.729     13.12,22.353 9.737,22.353 9.737,18.731 7.46,17.788 4.897,20.35 2.506,17.958 5.066,15.397 4.124,13.12 0.5,13.12 0.5,9.737     4.121,9.737 5.065,7.461 2.503,4.898 4.895,2.506 7.455,5.066 9.732,4.125 9.732,0.5 13.116,0.5 13.116,4.121 "/> 		<circle oryx:anchors="top left" id="_FB5863DE-D91D-446F-B6A6-BD5C1B2FD702frame21" style="opacity:1;fill:none" stroke="#000000" cx="11.427" cy="11.426" r="3.714"/> 		<polygon oryx:anchors="top left" id="_FB5863DE-D91D-446F-B6A6-BD5C1B2FD702frame22" style="opacity:1;fill:#ffffff" stroke="#000000" points="21.392,11.064 23.954,8.502 26.347,10.895 23.786,13.455     24.729,15.732 28.353,15.732 28.353,19.115 24.731,19.115 23.788,21.392 26.351,23.955 23.958,26.347 21.397,23.786 19.12,24.729     19.12,28.353 15.737,28.353 15.737,24.731 13.46,23.788 10.897,26.35 8.506,23.958 11.066,21.397 10.124,19.12 6.5,19.12     6.5,15.737 10.121,15.737 11.065,13.461 8.503,10.898 10.895,8.506 13.455,11.066 15.732,10.125 15.732,6.5 19.116,6.5     19.116,10.121 "/> 		<circle oryx:anchors="top left" id="_FB5863DE-D91D-446F-B6A6-BD5C1B2FD702frame23" style="opacity:1;fill:none;" stroke="#000000" cx="17.427" cy="17.426" r="3.714"/> 	</g> 	 	<g id="_FB5863DE-D91D-446F-B6A6-BD5C1B2FD702sendTask" display="none"> 		<path id="_FB5863DE-D91D-446F-B6A6-BD5C1B2FD702stframe24" oryx:anchors="left top" stroke="#FFFFFF" fill="black" stroke-width="1" d="M8,11 L8,21 L24,21 L24,11 L16,17z"/> 		<path id="_FB5863DE-D91D-446F-B6A6-BD5C1B2FD702stframe25" oryx:anchors="left top" stroke="#FFFFFF" fill="black" stroke-width="1" d="M7,10 L16,17 L25 10z"/> 	</g> 	 	<g id="_FB5863DE-D91D-446F-B6A6-BD5C1B2FD702receiveTask" display="none"> 		<path id="_FB5863DE-D91D-446F-B6A6-BD5C1B2FD702frame26" oryx:anchors="left top" stroke="#000000" fill="none" stroke-width="1" d="M8,11 L8,21 L24,21 L24,11z M8,11 L16,17 L24,11"/> 	</g> 	 	<g id="_FB5863DE-D91D-446F-B6A6-BD5C1B2FD702none" display="none"/>  	<g id="_FB5863DE-D91D-446F-B6A6-BD5C1B2FD702sequential" display="none">         <path oryx:anchors="bottom" fill="none" stroke="#000000" stroke-width="2" d="M46,76h10M46,72h10 M46,68h10" id="_FB5863DE-D91D-446F-B6A6-BD5C1B2FD702__FB5863DE-D91D-446F-B6A6-BD5C1B2FD702_20"/>     </g>   </g></g><g class="children" style="overflow:hidden"/><g class="edge"/></g><g class="controls"><g class="dockers"/><g class="magnets" transform="translate(420, 140)"><g pointer-events="all" display="none" transform="translate(-7, 12)"><circle cx="8" cy="8" r="4" stroke="none" fill="red" fill-opacity="0.3"/></g><g pointer-events="all" display="none" transform="translate(-7, 32)"><circle cx="8" cy="8" r="4" stroke="none" fill="red" fill-opacity="0.3"/></g><g pointer-events="all" display="none" transform="translate(-7, 52)"><circle cx="8" cy="8" r="4" stroke="none" fill="red" fill-opacity="0.3"/></g><g pointer-events="all" display="none" transform="translate(17, 71)"><circle cx="8" cy="8" r="4" stroke="none" fill="red" fill-opacity="0.3"/></g><g pointer-events="all" display="none" transform="translate(42, 71)"><circle cx="8" cy="8" r="4" stroke="none" fill="red" fill-opacity="0.3"/></g><g pointer-events="all" display="none" transform="translate(67, 71)"><circle cx="8" cy="8" r="4" stroke="none" fill="red" fill-opacity="0.3"/></g><g pointer-events="all" display="none" transform="translate(91, 12)"><circle cx="8" cy="8" r="4" stroke="none" fill="red" fill-opacity="0.3"/></g><g pointer-events="all" display="none" transform="translate(91, 32)"><circle cx="8" cy="8" r="4" stroke="none" fill="red" fill-opacity="0.3"/></g><g pointer-events="all" display="none" transform="translate(91, 52)"><circle cx="8" cy="8" r="4" stroke="none" fill="red" fill-opacity="0.3"/></g><g pointer-events="all" display="none" transform="translate(17, -7)"><circle cx="8" cy="8" r="4" stroke="none" fill="red" fill-opacity="0.3"/></g><g pointer-events="all" display="none" transform="translate(42, -7)"><circle cx="8" cy="8" r="4" stroke="none" fill="red" fill-opacity="0.3"/></g><g pointer-events="all" display="none" transform="translate(67, -7)"><circle cx="8" cy="8" r="4" stroke="none" fill="red" fill-opacity="0.3"/></g><g pointer-events="all" display="none" transform="translate(42, 32)"><circle cx="8" cy="8" r="4" stroke="none" fill="red" fill-opacity="0.3"/></g></g></g></g><g id="_7299C209-1D68-43EB-93BC-2F0BF433A0F6" bpmn2nodeid="_FA7BBD25-B105-45C8-82AC-788A55E69E9E"><g class="stencils" transform="translate(660, 166)"><g class="me"><g pointer-events="fill" id="_7299C209-1D68-43EB-93BC-2F0BF433A0F6">      <defs id="_7299C209-1D68-43EB-93BC-2F0BF433A0F6__7299C209-1D68-43EB-93BC-2F0BF433A0F6_5"> 		<radialGradient id="_7299C209-1D68-43EB-93BC-2F0BF433A0F6background" cx="10%" cy="10%" r="100%" fx="10%" fy="10%"> 			<stop offset="0%" stop-color="#ffffff" stop-opacity="1" id="_7299C209-1D68-43EB-93BC-2F0BF433A0F6__7299C209-1D68-43EB-93BC-2F0BF433A0F6_6"/> 			<stop id="_7299C209-1D68-43EB-93BC-2F0BF433A0F6fill_el" offset="100%" stop-color="#ff6347" stop-opacity="1"/> 		</radialGradient> 	</defs> 	     <circle id="_7299C209-1D68-43EB-93BC-2F0BF433A0F6bg_frame" cx="14" cy="14" r="14" stroke="#000000" fill="url(#_7299C209-1D68-43EB-93BC-2F0BF433A0F6background) white" stroke-width="3"/> 	<text font-size="11" id="_7299C209-1D68-43EB-93BC-2F0BF433A0F6text_name" x="14" y="30" oryx:align="top center" stroke="black" stroke-width="0pt" letter-spacing="-0.01px" fill="#000000" text-anchor="middle" transform="rotate(0 14 30)" visibility="inherit" oryx:fontSize="11"/>   </g></g><g class="children" style="overflow:hidden"/><g class="edge"/></g><g class="controls"><g class="dockers"/><g class="magnets" transform="translate(660, 166)"><g pointer-events="all" display="none" transform="translate(6, 6)"><circle cx="8" cy="8" r="4" stroke="none" fill="red" fill-opacity="0.3"/></g></g></g></g></g><g class="edge"><g id="_567BA834-DAAD-46D4-A8BB-3560F64AB561" bpmn2nodeid="_CC38378F-2D6E-4468-BAB7-4722C9E0B567"><g class="stencils"><g class="me"><g pointer-events="painted" bpmn2nodeid="_CC38378F-2D6E-4468-BAB7-4722C9E0B567"><path id="_567BA834-DAAD-46D4-A8BB-3560F64AB561_1" d="M150.21875 180L224.78125 180 " stroke="#000000" fill="none" stroke-width="2" stroke-linecap="round" stroke-linejoin="round" marker-start="url(#_567BA834-DAAD-46D4-A8BB-3560F64AB561start)" marker-end="url(#_567BA834-DAAD-46D4-A8BB-3560F64AB561end)"/></g><text id="_567BA834-DAAD-46D4-A8BB-3560F64AB561text_name" font-size="12" x="164.21875" y="166" oryx:edgePosition="startTop" stroke-width="0pt" letter-spacing="-0.01px" fill="#000000" text-anchor="start" transform="rotate(360 150.21875 180)" visibility="inherit" oryx:fontSize="12"/></g><g class="children" style="overflow:hidden"/><g class="edge"/></g><g class="controls"><g class="dockers"/><g class="magnets"/></g></g><g id="_DAF40E76-72E5-42F9-8C81-A48EEDC47F55" bpmn2nodeid="_4DE0DC89-5398-4B8F-926E-DACB41144591"><g class="stencils"><g class="me"><g pointer-events="painted" bpmn2nodeid="_4DE0DC89-5398-4B8F-926E-DACB41144591"><path id="_DAF40E76-72E5-42F9-8C81-A48EEDC47F55_1" d="M520.40625 180L659.453125 180 " stroke="#000000" fill="none" stroke-width="2" stroke-linecap="round" stroke-linejoin="round" marker-start="url(#_DAF40E76-72E5-42F9-8C81-A48EEDC47F55start)" marker-end="url(#_DAF40E76-72E5-42F9-8C81-A48EEDC47F55end)"/></g><text id="_DAF40E76-72E5-42F9-8C81-A48EEDC47F55text_name" font-size="12" x="534.40625" y="166" oryx:edgePosition="startTop" stroke-width="0pt" letter-spacing="-0.01px" fill="#000000" text-anchor="start" transform="rotate(360 520.40625 180)" visibility="inherit" oryx:fontSize="12"/></g><g class="children" style="overflow:hidden"/><g class="edge"/></g><g class="controls"><g class="dockers"/><g class="magnets"/></g></g><g id="_BA233D35-96AE-4D44-9368-45F588F4CCAE" bpmn2nodeid="_9251FD17-6208-4382-AC8B-C70A113C0D8E"><g class="stencils"><g class="me"><g pointer-events="painted" bpmn2nodeid="_9251FD17-6208-4382-AC8B-C70A113C0D8E"><path id="_BA233D35-96AE-4D44-9368-45F588F4CCAE_1" d="M325.51171875 180L419.48828125 180 " stroke="#000000" fill="none" stroke-width="2" stroke-linecap="round" stroke-linejoin="round" marker-start="url(#_BA233D35-96AE-4D44-9368-45F588F4CCAEstart)" marker-end="url(#_BA233D35-96AE-4D44-9368-45F588F4CCAEend)"/></g><text id="_BA233D35-96AE-4D44-9368-45F588F4CCAEtext_name" font-size="12" x="339.51171875" y="166" oryx:edgePosition="startTop" stroke-width="0pt" letter-spacing="-0.01px" fill="#000000" text-anchor="start" transform="rotate(360 325.51171875 180)" visibility="inherit" oryx:fontSize="12"/></g><g class="children" style="overflow:hidden"/><g class="edge"/></g><g class="controls"><g class="dockers"/><g class="magnets"/></g></g></g><text id="_3781036C-A6C2-4BEA-86DB-97E2EEF72D03" style="stroke-width:1;fill:rgb(177,194,214);font-family:arial;font-weight:bold" font-size="12" onclick="ORYX.Plugins.CanvasTitle.openTextualAnalysis()" onmouseover="ORYX.Plugins.CanvasTitle.addToolTip('_3781036C-A6C2-4BEA-86DB-97E2EEF72D03')" transform="translate(10, 20)">asset-request-process v.1.0 (procurement.asset-request-process)</text></g></g></svg>